<?xml version="1.0" standalone="no"?><!DOCTYPE svg PUBLIC "-//W3C//DTD SVG 1.1//EN" "http://www.w3.org/Graphics/SVG/1.1/DTD/svg11.dtd"><svg t="1770621112737" class="icon" viewBox="0 0 1024 1024" version="1.1" xmlns="http://www.w3.org/2000/svg" p-id="3866" xmlns:xlink="http://www.w3.org/1999/xlink" width="200" height="200"><path d="M610.3552 414.6688c0.017067-0.546133 0.9728 0.938667 2.986667 3.2256 4.0448 4.5568 9.898667 9.437867 16.9472 13.892267 16.093867 10.154667 35.754667 16.571733 56.746666 17.493333l5.290667 0.119467a34.133333 34.133333 0 1 1 0 68.266666c-70.434133 0-139.246933-43.4176-148.718933-88.558933-4.829867-22.8352-4.232533-237.277867-0.887467-278.272a34.133333 34.133333 0 0 1 68.164267 3.003733l-0.5632 9.557334c-2.389333 48.64-2.781867 230.912-0.085334 250.692266l0.119467 0.580267zM443.050667 119.483733a34.133333 34.133333 0 0 1 33.297066 32.375467v14.728533c0.136533 10.922667 0.580267 29.013333 1.536 63.709867l3.1744 117.640533c0.768 33.962667 0.9216 54.3232 0.426667 65.348267l-0.068267 1.501867c-3.1232 57.156267-74.001067 99.106133-149.572266 99.106133a34.133333 34.133333 0 1 1 0-68.266667c43.8272 0 80.725333-21.828267 81.408-34.525866l0.187733-5.922134c0.273067-14.7968-0.290133-45.329067-1.621333-95.163733l-3.6352-136.840533c-0.170667-9.8304-0.170667-15.4112-0.0512-20.360534a34.133333 34.133333 0 0 1 34.9184-33.3312z" fill="#ffffff" p-id="3867" data-spm-anchor-id="a313x.search_index.0.i8.48b53a819CjjMo" class="selected"></path><path d="M124.842667 427.400533l5.768533-11.502933c66.935467-130.747733 154.794667-205.4144 226.798933-154.624 45.9264 32.3584 67.618133 92.381867 74.410667 187.050667a34.133333 34.133333 0 1 1-68.096 4.898133c-5.461333-76.1344-20.821333-118.664533-45.653333-136.174933-21.845333-15.394133-81.425067 37.4272-131.925334 140.407466-58.555733 119.364267-82.705067 257.194667-55.432533 351.914667 7.150933 24.866133 29.184 31.3344 61.2864 12.970667l3.362133-1.979734c22.391467-13.704533 47.906133-20.087467 79.104-22.254933l8.5504-0.494933c4.7104-0.221867 9.540267-0.341333 15.394134-0.4096l31.658666-0.1536c11.639467-0.170667 17.8176-0.6144 23.381334-1.6384l3.037866-0.6656 0.324267-0.1024 0.290133-0.887467c2.372267-8.482133 3.618133-25.975467 4.164267-60.040533l0.648533-67.345067a1246.549333 1246.549333 0 0 1 1.9968-56.6272 34.133333 34.133333 0 1 1 68.1472 3.925333l-0.631466 12.100267c-1.024 21.111467-1.365333 41.1136-1.5872 75.776l-0.170667 25.122133c-0.648533 61.559467-2.781867 81.578667-13.175467 101.922134-10.0352 19.626667-27.818667 29.781333-50.756266 33.962666l-4.898134 0.836267c-9.6768 1.450667-19.285333 1.8944-36.5568 1.9968l-25.361066 0.085333c-7.936 0.1024-13.5168 0.3072-19.746134 0.750934-21.213867 1.467733-36.693333 5.341867-48.162133 12.373333-69.410133 42.461867-144.827733 22.9376-165.905067-50.346667-32.631467-113.373867-5.614933-267.605333 59.733334-400.8448zM666.5728 261.290667c74.103467-52.2752 164.983467 28.296533 232.584533 166.109866 65.365333 133.239467 92.3648 287.453867 59.733334 400.8448-21.0944 73.284267-96.494933 92.808533-165.888 50.346667-10.5472-6.4512-24.405333-10.24-42.990934-11.963733l-5.188266-0.426667c-6.468267-0.443733-12.2368-0.648533-20.6848-0.750933l-28.586667-0.119467c-17.408-0.170667-26.5216-0.802133-37.290667-2.7648-22.920533-4.1984-40.721067-14.353067-50.7392-33.979733l-1.8432-3.7888c-9.301333-20.2752-10.8544-42.615467-11.281066-108.3904l-0.290134-36.369067a1233.5104 1233.5104 0 0 0-2.065066-64.341333 34.133333 34.133333 0 0 1 68.1472-4.0448l1.0752 21.077333c0.512 12.458667 0.836267 25.053867 1.041066 40.738133l0.443734 52.104534c0.426667 39.697067 1.672533 59.221333 4.181333 68.266666l0.238933 0.785067 1.706667 0.443733 1.672533 0.341334c5.563733 1.024 11.741867 1.467733 23.381334 1.6384l28.757333 0.119466c10.9568 0.085333 18.210133 0.341333 26.862933 0.938667 28.962133 1.9968 53.026133 7.645867 74.24 19.421867l4.846934 2.833066c33.928533 20.770133 57.2416 14.728533 64.648533-10.990933 27.272533-94.737067 3.1232-232.5504-55.415467-351.914667-50.517333-102.980267-110.114133-155.8016-131.959466-140.3904-24.951467 17.595733-40.413867 60.8768-45.755734 138.018134a34.133333 34.133333 0 0 1-68.096-4.727467c6.638933-95.744 28.330667-156.501333 74.513067-189.0816z" fill="#ffffff" p-id="3868" data-spm-anchor-id="a313x.search_index.0.i7.48b53a819CjjMo" class="selected"></path><path d="M709.376 655.9744c-85.794133 0-150.613333-17.476267-196.573867-53.213867-46.08 31.232-117.248 49.629867-198.0416 49.629867v-68.266667c94.685867 0 150.562133-28.842667 165.034667-48.196266l6.587733-8.874667a34.133333 34.133333 0 0 1 53.998934-0.8704l6.894933 8.618667c10.478933 13.090133 42.325333 52.906667 162.0992 52.906666v68.266667z" fill="#ffffff" p-id="3869" data-spm-anchor-id="a313x.search_index.0.i9.48b53a819CjjMo" class="selected"></path></svg>