<?xml version="1.0" standalone="no"?><!DOCTYPE svg PUBLIC "-//W3C//DTD SVG 1.1//EN" "http://www.w3.org/Graphics/SVG/1.1/DTD/svg11.dtd"><svg t="1770621685604" class="icon" viewBox="0 0 1024 1024" version="1.1" xmlns="http://www.w3.org/2000/svg" p-id="9294" xmlns:xlink="http://www.w3.org/1999/xlink" width="200" height="200"><path d="M320 529.066667C281.6 499.2 256 456.533333 256 405.333333 256 324.266667 324.266667 256 405.333333 256S554.666667 324.266667 554.666667 405.333333c0 51.2-25.6 93.866667-64 123.733334 85.333333 34.133333 149.333333 119.466667 149.333333 217.6 0 12.8-8.533333 21.333333-21.333333 21.333333s-21.333333-8.533333-21.333334-21.333333C597.333333 640 512 554.666667 405.333333 554.666667S213.333333 640 213.333333 746.666667c0 12.8-8.533333 21.333333-21.333333 21.333333s-21.333333-8.533333-21.333333-21.333333c0-98.133333 64-183.466667 149.333333-217.6z m298.666667-230.4c-12.8 0-21.333333-8.533333-21.333334-21.333334s8.533333-21.333333 21.333334-21.333333C699.733333 256 768 324.266667 768 405.333333c0 51.2-25.6 93.866667-64 123.733334 85.333333 34.133333 149.333333 119.466667 149.333333 217.6 0 12.8-8.533333 21.333333-21.333333 21.333333s-21.333333-8.533333-21.333333-21.333333c0-106.666667-85.333333-192-192-192-12.8 0-21.333333-8.533333-21.333334-21.333334s8.533333-21.333333 21.333334-21.333333c59.733333 0 106.666667-46.933333 106.666666-106.666667S678.4 298.666667 618.666667 298.666667z m-213.333334 213.333333c59.733333 0 106.666667-46.933333 106.666667-106.666667S465.066667 298.666667 405.333333 298.666667 298.666667 345.6 298.666667 405.333333 345.6 512 405.333333 512z" p-id="9295" data-spm-anchor-id="a313x.search_index.0.i21.48b53a819CjjMo" class="selected" fill="#ffffff"></path></svg>