<?xml version="1.0" standalone="no"?><!DOCTYPE svg PUBLIC "-//W3C//DTD SVG 1.1//EN" "http://www.w3.org/Graphics/SVG/1.1/DTD/svg11.dtd"><svg t="1770691626184" class="icon" viewBox="0 0 1024 1024" version="1.1" xmlns="http://www.w3.org/2000/svg" p-id="23755" xmlns:xlink="http://www.w3.org/1999/xlink" width="200" height="200"><path d="M1007.355 511.84c0 273.541-221.741 495.297-495.298 495.297-273.542 0-495.282-221.756-495.282-495.297 0-273.542 221.741-495.291 495.282-495.291 273.557 0 495.298 221.749 495.298 495.291z" fill="#F5CB2B" p-id="23756"></path><path d="M286.605 515.257c-19.794 0-35.979-16.193-35.979-35.979v-124.73c0-19.786 16.186-35.979 35.979-35.979 19.778 0 35.979 16.193 35.979 35.979v124.73c-0.001 19.785-16.201 35.979-35.979 35.979zM737.541 515.257c-19.793 0-35.979-16.193-35.979-35.979v-124.73c0-19.786 16.186-35.979 35.979-35.979 19.778 0 35.98 16.193 35.98 35.979v124.73c0 19.785-16.202 35.979-35.98 35.979z" fill="#3E3417" p-id="23757"></path><path d="M334.571 732.731a24.97 24.97 0 0 1-7.001-1c-13.321-3.858-21.021-17.718-17.217-31.055 14.792-51.74 76.126-149.592 202.508-149.592 126.519 0 186.791 97.32 200.977 148.789 3.698 13.413-4.168 27.279-17.58 30.971-13.412 3.713-27.28-4.168-30.978-17.581-1.273-4.471-33.205-111.81-152.419-111.81-119.425 0-152.738 108.536-154.102 113.15-3.228 10.982-13.291 18.128-24.188 18.128z" fill="#3E3417" p-id="23758"></path></svg>