<?xml version="1.0" standalone="no"?><!DOCTYPE svg PUBLIC "-//W3C//DTD SVG 1.1//EN" "http://www.w3.org/Graphics/SVG/1.1/DTD/svg11.dtd"><svg t="1770703950945" class="icon" viewBox="0 0 1024 1024" version="1.1" xmlns="http://www.w3.org/2000/svg" p-id="19406" xmlns:xlink="http://www.w3.org/1999/xlink" width="200" height="200"><path d="M540.032 70.976c-245.952 0-446.016 200.064-446.016 446.016s200.064 446.016 446.016 446.016 446.016-200.064 446.016-446.016-200.064-446.016-446.016-446.016z m0 828.032c-210.624 0-382.016-171.392-382.016-382.016s171.392-382.016 382.016-382.016 382.016 171.392 382.016 382.016-171.392 382.016-382.016 382.016z" p-id="19407" data-spm-anchor-id="a313x.search_index.0.i10.69393a81Vao6il" class="selected" fill="#89b7ff"></path><path d="M417.152 643.84c0 35.2 24.96 49.6 55.424 32l219.584-126.784c30.528-17.6 30.528-46.4 0-64L472.576 358.208c-30.528-17.6-55.424-3.2-55.424 32v253.632z" p-id="19408" data-spm-anchor-id="a313x.search_index.0.i9.69393a81Vao6il" class="selected" fill="#89b7ff"></path></svg>