<?xml version="1.0" standalone="no"?><!DOCTYPE svg PUBLIC "-//W3C//DTD SVG 1.1//EN" "http://www.w3.org/Graphics/SVG/1.1/DTD/svg11.dtd"><svg t="1770707262246" class="icon" viewBox="0 0 1024 1024" version="1.1" xmlns="http://www.w3.org/2000/svg" p-id="33752" xmlns:xlink="http://www.w3.org/1999/xlink" width="200" height="200"><path d="M527.022 20.601c-267.969 0-485.087 217.119-485.087 485.088s217.118 485.088 485.087 485.088 485.088-217.118 485.088-485.088c0.122-267.848-217.118-485.088-485.088-485.088z m295.762 490.55L565.98 702.417c-4.49 3.52-10.195 5.583-16.384 5.583-14.32 0-25.972-11.044-26.943-25v-94.3H451.05c-88.959 0-169.422 34.467-229.254 90.78-1.942 1.456-4.248 2.427-6.918 2.427-6.19 0-11.287-4.976-11.287-11.165 0-0.607 0.122-1.214 0.122-1.82 29.976-147.335 162.869-259.11 318.941-265.3v-95.149c1.093-13.956 12.622-25 26.943-25 5.825 0 11.408 1.941 15.777 5.218l257.654 191.875c4.247 3.762 7.039 9.224 7.039 15.17 0.121 6.19-2.792 11.651-7.282 15.413z" p-id="33753" data-spm-anchor-id="a313x.search_index.0.i8.61863a81U97NOG" class="selected" fill="#89b7ff"></path></svg>