<?xml version="1.0" standalone="no"?><!DOCTYPE svg PUBLIC "-//W3C//DTD SVG 1.1//EN" "http://www.w3.org/Graphics/SVG/1.1/DTD/svg11.dtd"><svg t="1770693650629" class="icon" viewBox="0 0 1024 1024" version="1.1" xmlns="http://www.w3.org/2000/svg" p-id="14226" xmlns:xlink="http://www.w3.org/1999/xlink" width="200" height="200"><path d="M512.785388 958.837908l-9.503445-3.679809C198.092126 837.1975 162.799318 683.007769 162.799318 577.297169L162.799318 173.535335l27.243481 0.930185c212.141608 7.225565 302.476009-88.520079 303.32433-89.450265l19.444864-21.259186 19.420305 21.259186c0.713244 0.76748 86.322018 89.835028 280.661168 89.835028l0.030699 0c7.387247 0 14.938224-0.107447 22.602787-0.384763l27.243481-0.930185 0 403.76081c0 105.711624-35.291784 259.900332-340.482625 377.861954L512.785388 958.837908 512.785388 958.837908zM215.476051 227.53111l0 349.766059c0 56.850799 0.028653 206.946282 297.309336 325.018422C810.0937 784.243451 810.0937 634.146944 810.0937 577.297169l0-349.766059c-164.624385-0.632403-259.349793-59.21566-297.30729-89.479941C474.800261 168.284751 380.07383 226.844471 215.476051 227.53111L215.476051 227.53111zM215.476051 227.53111M638.797359 482.959593l-84.150562 0 28.193109-184.188976L386.772392 539.632337l97.819886 0-27.765367 184.189999L638.797359 482.959593 638.797359 482.959593zM638.797359 482.959593" fill="#ffffff" p-id="14227"></path></svg>