<?xml version="1.0" standalone="no"?><!DOCTYPE svg PUBLIC "-//W3C//DTD SVG 1.1//EN" "http://www.w3.org/Graphics/SVG/1.1/DTD/svg11.dtd"><svg t="1770691820904" class="icon" viewBox="0 0 1024 1024" version="1.1" xmlns="http://www.w3.org/2000/svg" p-id="40389" xmlns:xlink="http://www.w3.org/1999/xlink" width="200" height="200"><path d="M512 512m-487.50922798 0a487.50922798 487.50922798 0 1 0 975.01845596 0 487.50922798 487.50922798 0 1 0-975.01845596 0Z" fill="#F9C933" p-id="40390"></path><path d="M512 1014.591692c-277.14027654 0-502.591692-225.45141543-502.591692-502.591692S234.85972346 9.25119901 512 9.25119901s502.74880099 225.45141543 502.74880099 502.74880099-225.60852446 502.591692-502.74880099 502.591692z m0-974.86134693c-260.48672252 0-472.26965493 211.94004141-472.26965493 472.26965493S251.51327748 984.26965493 512 984.26965493 984.26965493 772.48672252 984.26965493 512 772.48672252 39.73034507 512 39.73034507z" fill="#f9c933" p-id="40391"></path><path d="M727.71065742 685.13411835c-28.75094705 80.91113516-114.68957024 139.66990128-216.33909342 139.66990126-100.2355422 0-185.23151136-57.18767612-215.08222142-136.37061226" fill="#F9C933" p-id="40392"></path><path d="M511.371564 840.04359265c-104.32037621 0-196.38625039-58.75876611-229.37914046-146.26847928-2.98507101-7.85545002 0.94265401-16.65355405 8.79810402-19.63862505 7.85545002-2.98507101 16.65355405 0.94265401 19.63862504 8.79810402 28.43672906 75.72653814 109.1907552 126.62985425 200.9424114 126.62985424 93.32274619 0 174.54809934-52.00307911 202.04217439-129.61492524 2.82796201-7.85545002 11.46895703-12.09739302 19.32440706-9.26943103 7.85545002 2.82796201 12.09739302 11.46895703 9.26943101 19.32440704-31.73601807 89.86634818-124.43032825 150.0390953-230.63601246 150.0390953z" fill="#603813" p-id="40393"></path><path d="M224.49052944 432.97417284c-1.885308 0-3.770616-0.31421799-5.65592402-1.09976299-7.85545002-3.14217999-11.62606602-11.94028402-8.48388603-19.79573405 1.72819901-4.39905201 43.67630209-107.30544721 111.07606322-109.8191912 41.79099409-1.885308 81.06824416 35.03530708 116.88909625 108.7194282 3.61350702 7.54123201 0.47132701 16.65355405-6.91279601 20.26706103-7.54123201 3.770616-16.65355405 0.47132701-20.26706104-6.912796-29.22227406-60.01563811-59.38720211-91.75165617-87.19549519-91.75165618h-1.256872c-39.74857708 1.41398101-73.99833914 65.98578013-83.89620616 90.65189317-2.51374401 6.127251-8.326777 9.74075802-14.29691902 9.74075802zM799.50947056 432.97417284c-5.65592402 0-10.99763002-3.14217999-13.66848301-8.48388602-29.37938307-60.01563811-59.38720211-91.75165617-87.19549518-91.75165619h-1.25687201c-39.59146809 1.41398101-73.99833914 65.98578013-84.05331515 90.6518932-3.14217999 7.85545002-11.94028402 11.46895703-19.79573404 8.48388602-7.85545002-3.14217999-11.62606602-11.94028402-8.48388603-19.79573405 1.72819901-4.39905201 43.67630209-107.30544721 111.07606322-109.8191912 41.31966706-1.885308 81.06824416 35.03530708 117.04620524 108.7194282 3.61350702 7.54123201 0.47132701 16.65355405-6.91279602 20.26706103-2.19952601 1.25687199-4.556161 1.72819901-6.75568702 1.72819901z" fill="#603813" p-id="40394"></path><path d="M131.32489227 549.23483307a80.28269917 39.27725009 0 1 0 160.56539829 0 80.28269917 39.27725009 0 1 0-160.56539829 0Z" fill="#f9c933" p-id="40395"></path><path d="M732.10970944 549.23483307a80.28269917 39.27725009 0 1 0 160.56539829 0 80.28269917 39.27725009 0 1 0-160.56539829 0Z" fill="#f9c933" p-id="40396"></path></svg>