<?xml version="1.0" standalone="no"?><!DOCTYPE svg PUBLIC "-//W3C//DTD SVG 1.1//EN" "http://www.w3.org/Graphics/SVG/1.1/DTD/svg11.dtd"><svg t="1770690946394" class="icon" viewBox="0 0 1024 1024" version="1.1" xmlns="http://www.w3.org/2000/svg" p-id="16151" xmlns:xlink="http://www.w3.org/1999/xlink" width="200" height="200"><path d="M793.088 307.2v-10.24a5.12 5.12 0 0 0-5.632-5.12h-5.632a184.832 184.832 0 0 0-77.824-158.72 181.248 181.248 0 0 0-105.472-36.352 12.8 12.8 0 0 1-7.168-4.096 9.728 9.728 0 0 0-10.24-9.216h-31.744a60.416 60.416 0 0 0-51.2-28.672 61.952 61.952 0 0 0-45.056 18.944c-29.184 0-139.264 0-220.16-3.072-12.8 0-12.8 0-19.456 6.144a40.96 40.96 0 0 0 0 35.84 11.264 11.264 0 0 0 7.68 3.072A744.448 744.448 0 0 1 398.848 102.4c4.096 0 8.704 5.632 0 10.24-26.112 15.36-106.496 41.984-134.656 51.2a19.968 19.968 0 0 0-12.288 12.288 108.032 108.032 0 0 0 0 22.528 9.728 9.728 0 0 0 13.824 7.68 879.104 879.104 0 0 1 157.184-71.68 43.008 43.008 0 0 1 19.456 0v107.52a144.896 144.896 0 0 0-140.8 138.752v554.496c0 27.136 6.144 36.864 24.064 36.864h349.696c17.92 0 24.064-9.728 24.064-36.864V387.584v-3.072a145.92 145.92 0 0 0-145.408-138.752v-102.4h28.16a9.728 9.728 0 0 0 10.24-9.216s4.608-5.12 6.656-5.12a146.432 146.432 0 0 1 83.456 24.576 153.6 153.6 0 0 1 68.608 135.68h-4.096a5.12 5.12 0 0 0-5.632 5.12V307.2a51.2 51.2 0 0 0-28.672 44.032v135.68a5.12 5.12 0 0 0 5.632 5.12H819.2a5.12 5.12 0 0 0 5.12-5.12V350.208a51.2 51.2 0 0 0-31.232-43.008z" p-id="16152" data-spm-anchor-id="a313x.search_index.0.i38.48b53a819CjjMo" class="selected" fill="#89b7ff"></path></svg>